<?xml version="1.0" standalone="no"?>
<!DOCTYPE svg PUBLIC "-//W3C//DTD SVG 20010904//EN"
 "http://www.w3.org/TR/2001/REC-SVG-20010904/DTD/svg10.dtd">
<svg version="1.0" xmlns="http://www.w3.org/2000/svg"
 width="693.000000pt" height="693.000000pt" viewBox="0 0 693.000000 693.000000"
 preserveAspectRatio="xMidYMid meet">
<metadata>
Created by potrace 1.11, written by Peter Selinger 2001-2013
</metadata>
<g transform="translate(0.000000,693.000000) scale(0.100000,-0.100000)"
fill="#000000" stroke="none">
<path d="M1899 4186 c-1 -6 -2 -196 -3 -423 l-1 -412 23 -4 c12 -2 24 -2 26 2
1 3 2 195 2 425 l-1 419 -22 2 c-13 1 -24 -3 -24 -9z"/>
<path d="M4223 4187 c-11 -17 -11 -819 -1 -833 5 -7 17 -10 28 -7 15 4 19 14
18 42 -1 55 0 56 31 25 46 -45 52 -49 111 -67 71 -22 210 -12 210 15 0 5 4 7
9 4 14 -9 104 77 130 125 36 66 38 172 5 247 -29 65 -53 94 -108 129 -113 72
-249 62 -351 -28 -30 -27 -35 -29 -36 -13 -1 11 -2 97 -3 193 -1 157 -3 174
-18 177 -10 1 -21 -3 -25 -9z m348 -337 c19 -5 45 -19 57 -30 12 -12 22 -18
22 -15 0 4 11 -6 24 -22 81 -97 82 -231 2 -316 -61 -65 -142 -92 -224 -74
-109 23 -183 109 -186 217 -3 89 27 152 97 209 45 36 138 50 208 31z"/>
<path d="M506 3905 c-20 -7 -36 -11 -36 -8 0 11 -78 -44 -108 -76 -51 -54 -74
-115 -75 -191 0 -97 17 -142 76 -207 35 -38 114 -83 147 -83 11 0 20 -5 20
-11 0 -5 5 -7 12 -3 6 4 35 8 65 10 29 1 60 7 68 14 8 7 15 10 15 6 0 -3 18 6
40 20 22 15 40 31 40 35 0 5 6 9 14 9 24 0 25 35 1 46 -18 9 -26 7 -44 -12
-63 -66 -181 -85 -266 -44 -47 23 -115 91 -115 115 0 8 -4 15 -8 15 -16 0 -18
107 -2 154 15 46 55 108 64 99 3 -4 6 -1 6 5 0 6 19 22 43 34 72 38 198 31
246 -14 11 -10 25 -18 31 -18 5 0 10 -7 10 -15 0 -20 13 -19 40 3 l22 18 -33
24 c-18 14 -37 30 -43 35 -41 39 -168 61 -230 40z"/>
<path d="M1168 3914 c-2 -1 -19 -6 -38 -9 -51 -9 -114 -49 -153 -98 -53 -66
-62 -94 -61 -197 0 -58 5 -84 22 -115 49 -89 134 -150 223 -159 25 -3 49 -6
55 -7 12 -3 93 20 124 36 14 7 39 27 57 44 35 34 38 32 38 -19 0 -39 9 -50 35
-43 16 4 17 25 17 256 0 256 -1 266 -38 267 -12 0 -15 -8 -13 -30 3 -27 1 -29
-14 -21 -10 6 -25 17 -32 26 -18 21 -76 51 -120 60 -40 9 -97 14 -102 9z m137
-76 c87 -46 128 -115 129 -214 0 -58 -5 -78 -26 -115 -31 -53 -49 -70 -106
-99 -50 -26 -144 -30 -183 -9 -13 7 -27 13 -30 12 -11 -3 -76 63 -98 100 -28
45 -36 142 -15 182 7 14 11 25 8 25 -9 0 40 65 65 85 64 53 187 69 256 33z"/>
<path d="M2287 3903 c-182 -53 -265 -259 -174 -425 11 -21 24 -38 28 -38 4 0
11 -9 14 -20 4 -11 11 -18 16 -15 5 4 9 2 9 -3 0 -15 93 -60 139 -66 24 -3 46
-8 48 -10 8 -8 118 26 136 41 9 9 17 12 17 8 0 -4 15 8 34 27 19 20 37 33 40
30 3 -3 6 2 6 11 0 9 3 17 8 17 7 0 32 50 36 73 1 6 4 17 8 22 3 6 5 39 4 75
-5 191 -189 327 -369 273z m121 -49 c15 9 77 -20 118 -56 39 -34 80 -111 69
-128 -3 -6 -2 -10 3 -10 5 0 9 -18 8 -40 -1 -22 -4 -40 -8 -40 -4 0 -6 -8 -6
-17 3 -82 -118 -176 -226 -175 -52 0 -136 27 -136 43 0 5 -7 9 -15 9 -8 0 -15
3 -15 8 0 4 -10 18 -22 32 -49 53 -62 154 -31 232 17 44 72 108 92 108 6 0 11
4 11 9 0 12 86 34 110 28 11 -3 20 0 20 6 0 8 4 7 9 -2 5 -7 13 -11 19 -7z"/>
<path d="M3740 3908 c0 -4 -3 -7 -7 -6 -13 5 -93 -25 -93 -34 0 -4 -5 -8 -11
-8 -17 0 -78 -72 -100 -120 -21 -45 -29 -135 -17 -191 23 -100 137 -205 233
-211 19 -2 35 -7 35 -11 0 -5 4 -6 9 -3 5 3 28 8 51 11 23 3 55 12 71 20 16 9
30 14 32 13 2 -2 21 14 43 34 l39 38 3 -44 c3 -45 18 -61 42 -46 17 11 20 494
3 511 -6 6 -20 8 -31 5 -14 -5 -18 -13 -14 -31 6 -32 0 -31 -40 5 -18 17 -53
40 -78 51 -45 20 -170 33 -170 17z m134 -61 c52 -15 131 -93 145 -143 6 -22
11 -60 11 -86 0 -51 -26 -128 -43 -128 -6 0 -7 -3 -4 -6 9 -9 -40 -51 -88 -75
-48 -25 -136 -27 -186 -6 -20 8 -52 29 -73 47 -58 51 -77 98 -76 185 1 48 18
105 31 105 5 0 9 6 9 13 0 22 84 89 125 100 34 8 108 5 149 -6z"/>
<path d="M5406 3913 c-2 -2 -16 -6 -31 -9 -88 -16 -186 -108 -210 -199 -10
-37 -13 -155 -4 -155 3 0 11 -18 18 -40 14 -46 83 -120 140 -149 22 -11 65
-23 97 -25 62 -5 154 10 154 25 0 6 4 8 9 4 5 -3 15 0 23 7 7 7 32 30 55 50
l41 37 -29 10 c-25 9 -33 6 -61 -20 -56 -50 -140 -73 -213 -57 -44 10 -137 67
-129 80 3 4 0 8 -6 8 -16 0 -45 73 -54 138 -4 27 -26 25 266 26 172 1 241 5
250 14 9 9 8 23 -5 66 -20 61 -81 133 -135 157 -18 7 -32 17 -32 21 0 3 -9 4
-20 1 -11 -3 -20 -1 -20 3 0 9 -96 15 -104 7z m114 -64 c48 -15 113 -68 134
-111 9 -17 16 -33 16 -35 0 -1 -101 -3 -225 -3 l-226 0 16 31 c53 101 174 151
285 118z"/>
<path d="M2868 3881 c-59 -30 -86 -92 -66 -152 8 -24 78 -99 78 -84 0 4 6 0
14 -7 8 -7 33 -24 55 -37 44 -27 73 -75 66 -110 -4 -24 -45 -93 -45 -77 0 5
-6 3 -14 -3 -22 -18 -69 -16 -100 4 -30 20 -59 68 -48 80 4 4 -4 5 -18 3 -14
-1 -28 -7 -32 -12 -19 -26 57 -121 106 -132 46 -11 94 -8 111 6 8 7 15 9 15 6
0 -15 60 59 68 83 14 40 6 96 -17 135 -13 20 -52 53 -96 81 -90 56 -113 90
-91 134 34 65 122 57 140 -14 6 -22 9 -23 26 -13 53 34 -15 119 -98 124 -13 0
-37 -6 -54 -15z"/>
<path d="M1609 3853 c-3 -59 -4 -471 -1 -485 5 -21 33 -32 43 -16 4 6 7 81 7
166 0 148 10 212 34 212 5 0 7 4 4 9 -7 11 54 67 83 76 22 7 25 41 3 50 -19 7
-52 -12 -88 -51 -18 -19 -33 -34 -35 -34 -2 0 -4 11 -4 25 0 14 4 25 8 25 4 0
3 9 -3 20 -13 25 -50 27 -51 3z"/>
<path d="M4900 3855 c-7 -8 -9 -15 -4 -15 5 0 7 -45 4 -100 -3 -55 -2 -100 1
-100 7 0 3 -49 -5 -57 -3 -4 -1 -12 5 -20 6 -7 8 -13 3 -13 -5 0 -7 -46 -4
-102 3 -57 8 -102 13 -100 4 1 15 2 25 2 15 0 17 14 16 157 -1 115 3 168 13
193 16 39 82 112 95 104 4 -3 8 0 8 5 0 6 7 11 15 11 16 0 10 30 -9 42 -14 9
-60 -16 -95 -54 l-31 -33 3 35 c5 54 -25 79 -53 45z"/>
<path d="M5825 3857 c-10 -33 -12 -57 -6 -57 5 0 6 -80 1 -100 -3 -11 2 -160
6 -194 2 -21 12 -49 21 -64 20 -32 63 -76 63 -65 0 4 4 3 8 -2 12 -17 55 -31
104 -34 94 -5 171 38 205 114 14 33 17 73 18 225 l2 186 -24 2 c-12 1 -23 -2
-24 -6 -1 -4 -2 -86 -3 -183 -1 -132 -4 -180 -15 -193 -7 -9 -10 -16 -7 -16 4
0 -9 -16 -29 -35 -76 -71 -204 -52 -252 37 -15 28 -18 62 -19 208 -1 96 -3
177 -3 180 -2 11 -42 8 -46 -3z"/>
<path d="M304 3158 c0 -10 5 -18 10 -18 5 0 7 -3 3 -6 -3 -4 0 -19 9 -35 8
-16 12 -29 10 -29 -3 0 2 -17 11 -37 8 -21 15 -40 15 -43 1 -3 3 -11 5 -17 3
-7 11 -32 18 -55 8 -30 18 -44 33 -46 17 -3 24 8 42 63 12 36 25 63 30 60 4
-3 16 -30 25 -60 23 -70 38 -84 59 -53 9 13 19 38 22 56 4 18 11 32 16 32 5 0
6 4 3 10 -3 5 3 27 14 48 11 22 18 42 15 44 -2 3 3 21 11 41 21 50 19 68 -5
64 -23 -4 -31 -10 -34 -29 -3 -18 -37 -121 -45 -133 -3 -5 -6 -16 -7 -23 -5
-30 -12 -20 -34 41 -29 83 -65 86 -85 7 -11 -47 -18 -61 -28 -57 -7 2 -12 12
-12 23 1 10 -3 22 -8 25 -5 3 -10 12 -11 20 -7 37 -20 76 -32 101 -16 30 -50
34 -50 6z"/>
<path d="M1076 3172 c-8 -17 -4 -292 5 -298 9 -5 102 -8 160 -5 17 1 34 40 18
42 -5 1 -37 3 -71 3 l-63 2 -3 42 -3 42 70 0 c38 0 73 5 76 10 3 6 1 10 -4 10
-6 0 -10 6 -8 13 1 8 -14 12 -50 14 -29 0 -60 1 -68 2 -11 1 -15 13 -15 41 l0
40 58 1 c31 1 62 1 68 0 18 -2 24 37 7 43 -20 8 -172 6 -177 -2z"/>
<path d="M1663 3028 c0 -82 4 -151 9 -154 12 -8 124 -7 157 0 60 13 85 98 42
143 -15 15 -16 22 -5 48 10 25 10 36 -1 63 -18 41 -49 53 -134 50 l-67 -2 -1
-148z m153 85 c7 -7 10 -23 7 -33 -5 -19 -15 -22 -63 -22 -47 0 -50 2 -50 36
0 25 5 36 18 38 30 6 77 -4 88 -19z m20 -127 c18 -26 18 -29 -3 -52 -13 -13
-31 -19 -58 -18 -66 2 -65 1 -65 49 l0 44 56 -1 c43 -2 59 -6 70 -22z"/>
<path d="M2836 3171 c-3 -5 -6 -74 -5 -155 l0 -146 75 0 c90 0 129 16 164 66
32 48 33 141 1 175 -12 13 -21 26 -21 30 0 26 -199 54 -214 30z m152 -53 c7
-7 12 -8 12 -3 0 4 9 -2 20 -15 11 -12 17 -27 14 -31 -3 -5 -1 -9 4 -9 5 0 9
-18 9 -39 0 -45 -34 -93 -70 -98 -12 -2 -34 -5 -48 -7 -42 -6 -48 5 -50 84 -2
139 -6 130 49 130 26 0 53 -5 60 -12z"/>
<path d="M3504 3166 c-7 -20 -10 -126 -3 -126 4 0 3 -15 -1 -34 -4 -19 -4 -40
1 -47 4 -8 4 -16 -1 -19 -6 -4 -6 -19 0 -40 l10 -35 62 2 c35 1 75 2 91 2 20
1 27 6 27 20 0 24 -20 31 -83 27 -52 -2 -54 -1 -60 35 -6 32 13 58 36 50 30
-11 95 0 102 16 8 23 0 27 -65 29 -70 2 -78 6 -74 36 1 13 3 28 3 35 1 8 25
13 69 15 61 3 67 5 68 25 1 21 -2 22 -88 21 -56 0 -91 -5 -94 -12z"/>
<path d="M4133 3163 c-50 -25 -61 -105 -18 -135 20 -16 39 -21 114 -32 8 -2
20 -11 27 -21 16 -22 4 -42 -34 -56 -26 -10 -96 16 -86 32 3 5 -8 9 -24 9 -24
0 -29 -4 -25 -17 21 -81 146 -100 205 -32 51 60 15 120 -79 135 -53 8 -83 29
-76 53 9 33 87 44 109 15 16 -21 51 -25 58 -8 3 8 0 14 -6 14 -6 0 -9 3 -5 6
3 3 -4 15 -15 26 -28 28 -102 34 -145 11z"/>
<path d="M4717 3158 c-4 -14 1 -20 24 -25 16 -3 29 -8 30 -12 1 -3 2 -44 3
-91 2 -91 -6 -123 -28 -114 -8 3 -19 -3 -24 -13 -17 -31 6 -38 93 -32 44 3 75
6 69 7 -7 1 -11 10 -10 19 0 10 -5 18 -11 19 -7 1 -19 2 -26 3 -11 1 -14 26
-14 106 -1 58 2 103 6 101 14 -8 51 15 51 32 0 17 -8 19 -79 19 -69 0 -80 -3
-84 -19z"/>
<path d="M5343 3162 c-16 -7 -39 -28 -51 -46 -25 -36 -37 -123 -20 -143 6 -7
8 -13 4 -13 -15 0 29 -51 61 -71 83 -52 208 0 220 90 l6 40 -81 0 c-59 0 -82
-4 -86 -14 -8 -23 23 -39 72 -36 46 2 46 2 28 -18 -11 -12 -25 -21 -33 -21 -7
0 -13 -4 -13 -8 0 -5 -16 -9 -35 -10 -27 -1 -42 6 -69 32 -29 30 -33 41 -32
78 2 46 23 88 43 88 7 0 13 5 13 11 0 8 17 10 50 7 39 -4 55 -11 74 -33 40
-46 80 -40 55 7 -36 69 -129 96 -206 60z"/>
<path d="M5970 3036 c0 -79 3 -151 6 -159 3 -8 13 -13 23 -10 15 4 18 16 17
77 -1 40 1 85 4 102 l5 29 27 -45 c23 -40 37 -58 78 -107 6 -7 8 -13 5 -13 -2
0 3 -9 12 -20 10 -11 26 -20 35 -20 17 0 18 11 16 153 -3 144 -4 152 -23 152
-18 0 -20 -7 -21 -90 0 -49 -3 -92 -7 -95 -5 -5 -47 43 -47 55 0 3 -6 13 -12
20 -7 7 -29 36 -48 64 -19 28 -43 51 -52 51 -16 0 -18 -13 -18 -144z"/>
</g>
</svg>
